<svg version="1.0"
    xmlns="http://www.w3.org/2000/svg" width="416.000000pt" height="428.000000pt" viewBox="0 0 416.000000 428.000000" preserveAspectRatio="xMidYMid meet">
    <g transform="translate(0.000000,428.000000) scale(0.100000,-0.100000)">
        <path d="M2350 3914 c-418 -59 -934 -270 -1374 -561 -244 -162 -367 -274 -424
-388 -47 -94 -66 -239 -51 -393 13 -137 24 -179 59 -214 23 -23 37 -28 75 -28
63 0 87 12 305 150 105 67 241 148 303 180 62 33 105 60 96 60 -21 0 -197 -50
-343 -99 -149 -49 -177 -44 -114 19 76 74 369 249 608 363 197 93 458 197 497
197 8 0 -29 -84 -96 -217 -421 -844 -765 -1729 -809 -2085 -15 -122 12 -340
53 -418 27 -51 62 -73 123 -78 101 -7 400 60 613 139 1077 396 1879 1329 1879
2185 0 543 -279 981 -720 1134 -182 63 -463 85 -680 54z m602 -598 c165 -32
285 -94 383 -198 109 -115 162 -251 172 -440 12 -226 -57 -446 -213 -678 -355
-530 -1078 -989 -1683 -1070 -163 -22 -241 11 -241 102 0 63 19 128 137 468
129 374 209 579 393 1005 160 369 210 502 210 557 0 21 -9 65 -21 99 -12 34
-17 65 -13 69 11 10 329 76 429 89 114 14 365 13 447 -3z"/>
    </g>
</svg>