<?xml version="1.0" encoding="UTF-8" standalone="no"?>
<!DOCTYPE svg PUBLIC "-//W3C//DTD SVG 1.1//EN" "http://www.w3.org/Graphics/SVG/1.1/DTD/svg11.dtd">
<svg width="100%" height="100%" viewBox="0 0 3357 2418" version="1.1" xmlns="http://www.w3.org/2000/svg" xmlns:xlink="http://www.w3.org/1999/xlink" xml:space="preserve" xmlns:serif="http://www.serif.com/" style="fill-rule:evenodd;clip-rule:evenodd;stroke-linecap:round;stroke-linejoin:round;stroke-miterlimit:1.5;">
    <g transform="matrix(1,0,0,1,-98.0016,-540.866)">
        <g id="Artboard1" transform="matrix(1,0,0,1,9.06217,4.53108)">
            <g>
                <g transform="matrix(1,0,0,1,-9.06217,-4.53108)">
                    <path d="M3300.7,1740.3L3308.46,2276.27L1903.81,2912.09C2001.93,2700.02 1992.01,2510.42 1924.42,2318.17L3300.7,1740.3Z" style="fill:white;"/>
                </g>
                <g transform="matrix(1,0,0,1,-9.06217,-4.53108)">
                    <path d="M1884.85,2290.34C1854.45,2497.35 1851.85,2704.36 1873.2,2911.37L156.817,1593.23C107.533,1405.35 115.015,1214.15 169.237,1036.62L1884.85,2290.34Z" style="fill:url(#_Linear1);"/>
                </g>
                <g transform="matrix(1,0,0,1,-9.06217,-4.53108)">
                    <path d="M1690.77,574.731L3425.79,1677.07L1896.49,2294.22L188.645,1028.86L1690.77,574.731Z" style="fill:rgb(99,99,99);"/>
                </g>
                <g transform="matrix(2.08186,-1.38804,1.51267,2.26879,-6477.1,1197.23)">
                    <path d="M3039.26,2283.05L3043.66,2291.85L3034.86,2291.85L3039.26,2283.05Z" style="fill:rgb(255,221,221);stroke:black;stroke-width:5.08px;"/>
                </g>
                <g transform="matrix(1.3063,0,0,1.3063,-611.018,-819.974)">
                    <g transform="matrix(0.981656,0,0,0.985869,50.156,319.521)">
                        <path d="M2998.14,2014.58L1934.18,2493.5L2998.14,2014.58Z" style="fill:none;stroke:black;stroke-width:10.35px;"/>
                    </g>
                    <g transform="matrix(0.97084,0,0,0.970418,82.1627,296.141)">
                        <path d="M2998.14,2014.58L1934.18,2493.5L2998.14,2014.58Z" style="fill:none;stroke:black;stroke-width:10.49px;"/>
                    </g>
                    <g transform="matrix(0.961312,0,0,0.919995,107.563,344.152)">
                        <path d="M2998.14,2014.58L1934.18,2493.5L2998.14,2014.58Z" style="fill:none;stroke:black;stroke-width:10.82px;"/>
                    </g>
                    <g transform="matrix(0.962706,0,0,0.876033,105.911,380.033)">
                        <path d="M2998.14,2014.58L1934.18,2493.5L2998.14,2014.58Z" style="fill:none;stroke:black;stroke-width:11.06px;"/>
                    </g>
                    <g transform="matrix(0.967279,0,0,0.843525,91.6025,388.826)">
                        <path d="M2996.53,2015.32L1936.14,2501.38L2996.53,2015.32Z" style="fill:none;stroke:black;stroke-width:11.22px;"/>
                    </g>
                    <g transform="matrix(0.969102,0,0,0.867072,77.909,283.764)">
                        <path d="M3001.68,2018.27L1934.18,2493.5L3001.68,2018.27Z" style="fill:none;stroke:black;stroke-width:11.08px;"/>
                    </g>
                </g>
                <g transform="matrix(1,0,0,1,-9.06217,-4.53108)">
                    <path d="M1938.43,2311.44C1988.39,2489.7 1989.91,2685.42 1930.09,2888.52L1906.85,2903.93C1967.57,2719.54 1973.34,2523.06 1924.58,2317.13L1938.43,2311.44Z" style="fill:white;"/>
                </g>
                <g transform="matrix(1,0,0,1,-9.06217,-4.53108)">
                    <path d="M1924.75,2316.41C1978.78,2375.33 1981.13,2515.73 1974.36,2627.52C1974.36,2627.52 1968.8,2845.51 1903.18,2911.44C1883.86,2823 1877.39,2733.84 1879.78,2631.83C1880.86,2526.69 1900.61,2331.2 1924.75,2316.41Z" style="fill:url(#_Linear2);"/>
                </g>
            </g>
            <g transform="matrix(1.3063,0,0,1.3063,-609.793,-838.663)">
                <path d="M2989.77,2302.73L3073.06,2354.07L1903.62,2886.01L581.538,1856.37C538.428,1709.55 541.468,1566.92 583.422,1427.84L1760.42,1068.25L3088.57,1922.99L1913.32,2403.52C1878.35,2566.17 1878.19,2727.38 1904.03,2887.5C1877.43,2727.54 1878.9,2566.45 1915.65,2403.95L588.45,1427.05L1911.57,2401.47" style="fill:none;stroke:white;stroke-width:31.32px;"/>
                <g transform="matrix(1.00106,0,0,1.00514,2085.66,153.877)">
                    <path d="M903.378,1809.91L906.589,2213.03L-160.181,2693.15C-107.581,2531.16 -109.101,2376.51 -152.183,2227.49L903.378,1809.91Z" style="fill:none;stroke:white;stroke-width:10.15px;"/>
                </g>
            </g>
        </g>
    </g>
    <defs>
        <linearGradient id="_Linear1" x1="0" y1="0" x2="1" y2="0" gradientUnits="userSpaceOnUse" gradientTransform="matrix(377.892,-496.827,528.379,401.891,755.501,2070.26)"><stop offset="0" style="stop-color:black;stop-opacity:1"/><stop offset="0.18" style="stop-color:rgb(42,42,42);stop-opacity:1"/><stop offset="0.39" style="stop-color:rgb(82,82,82);stop-opacity:1"/><stop offset="1" style="stop-color:rgb(99,99,99);stop-opacity:1"/></linearGradient>
        <linearGradient id="_Linear2" x1="0" y1="0" x2="1" y2="0" gradientUnits="userSpaceOnUse" gradientTransform="matrix(250.603,-7.60767,44.9876,1481.93,1720.17,2622.93)"><stop offset="0" style="stop-color:black;stop-opacity:1"/><stop offset="0.54" style="stop-color:rgb(56,56,56);stop-opacity:1"/><stop offset="1" style="stop-color:white;stop-opacity:1"/></linearGradient>
    </defs>
</svg>
